<?xml version="1.0" encoding="utf-8"?>
<!-- Generator: Adobe Illustrator 16.0.0, SVG Export Plug-In . SVG Version: 6.00 Build 0)  -->
<!DOCTYPE svg PUBLIC "-//W3C//DTD SVG 1.1//EN" "http://www.w3.org/Graphics/SVG/1.1/DTD/svg11.dtd">
<svg version="1.1" id="Layer_1" xmlns="http://www.w3.org/2000/svg" xmlns:xlink="http://www.w3.org/1999/xlink" x="0px" y="0px"
	 width="286.266px" height="69.271px" viewBox="0 0 286.266 69.271" enable-background="new 0 0 286.266 69.271"
	 xml:space="preserve">
<g>
	<path fill="#FFFFFF" d="M12.673,53.356c-1.368,0-2.808-0.071-4.248-0.216C5.256,52.709,3.744,52.349,0,50.837l0.864-2.809
		l0.863-3.602l0.576-3.022L3.6,41.188c1.512,2.231,2.232,3.097,3.672,4.177c2.088,1.512,4.464,2.304,6.985,2.304
		c5.112,0,8.641-2.88,8.641-7.128c0-1.801-0.72-3.601-1.943-4.824c-1.368-1.367-2.952-2.377-7.272-4.681
		c-5.617-2.809-7.489-3.96-9.505-5.905c-2.304-2.304-3.6-5.544-3.6-9.145C0.576,6.481,8.208,0,19.514,0
		c1.152,0,2.304,0.072,3.384,0.216c3.024,0.288,4.681,0.792,8.569,2.305l-1.008,2.735l-1.08,3.601l-0.576,2.231l-1.152,0.072
		C26.067,9,25.275,8.135,23.835,7.272c-1.584-1.008-3.672-1.513-5.761-1.513c-4.393,0-7.272,2.448-7.272,6.192
		c0,1.872,0.864,3.672,2.376,4.969c1.512,1.225,3.24,2.232,7.417,4.32c5.688,2.808,7.489,3.96,9.433,6.265
		c2.089,2.376,3.168,5.328,3.168,8.713C33.195,46.156,24.626,53.356,12.673,53.356z"/>
	<path fill="#FFFFFF" d="M70.202,32.475l-0.792,0.937h-3.385l-7.417-0.072l-6.625,0.072L48.6,33.555
		c0.216,8.425,4.682,13.25,12.385,13.25c1.08,0,2.089-0.072,3.097-0.288c1.728-0.288,2.664-0.792,4.607-2.232l1.008,0.576
		l-1.367,3.384l-1.08,3.169c-1.152,0.359-2.088,0.647-2.736,0.792c-2.521,0.576-5.473,0.937-7.921,0.937
		c-11.017,0-18.29-7.416-18.29-18.723c0-11.232,7.128-19.009,17.425-19.009c8.857,0,14.618,5.544,14.618,14.041
		C70.346,30.171,70.274,31.179,70.202,32.475z M55.153,19.658c-2.304,0-4.032,0.938-5.185,2.88c-1.008,1.656-1.224,2.81-1.44,6.48
		h3.312l4.752-0.145c2.952-0.072,4.104-1.008,4.104-3.24C60.697,22.25,58.321,19.658,55.153,19.658z"/>
	<path fill="#FFFFFF" d="M110.81,19.442l-1.08,2.231c-2.16-0.144-3.023-0.216-4.176-0.216c-0.216,0-0.504,0-0.72,0.072h-0.721
		c1.225,1.944,1.513,2.88,1.513,5.112c0,7.487-5.833,12.024-15.625,12.024c-1.8,0-2.448-0.071-4.176-0.433
		c-1.44,1.296-1.872,2.017-1.872,3.023c0,2.521,2.592,3.456,9.576,3.456h3.673c8.208,0,12.312,3.312,12.312,9.865
		c0,8.785-8.064,14.689-20.162,14.689c-9.577,0-16.058-4.104-16.058-10.153c0-1.8,0.576-3.312,1.656-4.536
		c1.008-1.08,1.728-1.584,4.249-2.88l1.943-1.009l-1.439-0.576c-2.521-1.008-4.032-2.952-4.032-4.968c0-1.729,0.936-3.24,3.023-4.97
		l3.602-2.951c-4.249-2.232-6.193-5.4-6.193-9.793c0-7.201,5.833-11.594,15.41-11.594c3.24,0,5.041,0.288,7.562,1.225l6.553-0.072
		c2.016,0,3.168-0.072,5.904-0.36l0.504,0.648L110.81,19.442z M98.785,53.861c-1.801-1.08-3.744-1.297-9.865-1.297
		c-3.168,0-3.96,0.145-5.329,0.937c-2.088,1.152-3.168,2.736-3.168,4.682c0,3.96,3.816,6.407,9.865,6.407
		c6.336,0,10.729-2.735,10.729-6.769C101.017,56.165,100.225,54.653,98.785,53.861z M90.792,19.73c-0.216,0-0.36,0.071-0.504,0.071
		c-3.24,0.288-4.752,2.377-4.752,6.625c0,5.257,1.943,8.28,5.472,8.28c3.385,0,5.185-2.304,5.185-6.625
		C96.192,22.754,94.176,19.73,90.792,19.73z"/>
	<path fill="#FFFFFF" d="M170.931,51.701h-5.688l-3.024,0.145c0.216-1.44,0.433-2.521,0.504-3.24
		c0.217-1.729,0.433-6.408,0.433-10.441v-6.048v-0.433c0-2.593-0.145-3.889-0.504-5.112c-0.647-2.16-2.665-3.528-5.185-3.528
		c-2.017,0-3.961,0.864-5.473,2.376c-1.729,1.8-2.16,3.168-2.16,7.705v5.112c0,6.553,0.432,10.513,1.439,13.609l-3.168-0.145h-5.688
		l-3.024,0.145c0.216-1.44,0.36-2.521,0.36-3.24c0.216-1.729,0.432-6.408,0.504-10.441l0.072-6.048v-0.36
		c0-2.592-0.145-4.031-0.504-5.185c-0.721-2.16-2.736-3.528-5.186-3.528c-2.088,0-3.96,0.864-5.473,2.376
		c-1.729,1.8-2.16,3.24-2.16,7.705v5.112c0,6.553,0.432,10.513,1.439,13.609l-3.168-0.145h-5.688l-3.024,0.145
		c0.217-1.44,0.36-2.521,0.433-3.24c0.216-1.729,0.432-6.625,0.432-10.441l0.145-8.063c0-3.528-0.217-6.049-0.576-7.488
		c-0.36-1.512-1.44-2.232-3.168-2.232h-0.576l1.439-3.239l2.881-0.145l5.76-0.144l3.457-0.216l-0.145,6.12l2.88-2.447
		c3.456-2.88,6.336-4.177,9.938-4.177c4.969,0,8.281,2.232,9.865,6.77l3.023-2.592c3.384-2.88,6.336-4.177,9.865-4.177
		c3.744,0,6.769,1.368,8.641,3.889c1.514,2.16,1.944,4.032,1.872,9.217l-0.07,9c-0.072,6.553,0.432,10.513,1.438,13.609
		L170.931,51.701z"/>
	<path fill="#FFFFFF" d="M212.472,32.475l-0.792,0.937h-3.384l-7.417-0.072l-6.624,0.072l-3.385,0.145
		c0.216,8.425,4.681,13.25,12.385,13.25c1.08,0,2.089-0.072,3.097-0.288c1.729-0.288,2.664-0.792,4.608-2.232l1.008,0.576
		l-1.368,3.384l-1.08,3.169c-1.151,0.359-2.088,0.647-2.735,0.792c-2.521,0.576-5.473,0.937-7.921,0.937
		c-11.018,0-18.289-7.416-18.289-18.723c0-11.232,7.129-19.009,17.426-19.009c8.855,0,14.617,5.544,14.617,14.041
		C212.616,30.171,212.544,31.179,212.472,32.475z M197.423,19.658c-2.305,0-4.032,0.938-5.186,2.88
		c-1.008,1.656-1.224,2.81-1.439,6.48h3.312l4.753-0.145c2.952-0.072,4.104-1.008,4.104-3.24
		C202.967,22.25,200.591,19.658,197.423,19.658z"/>
	<path fill="#FFFFFF" d="M252.143,51.701h-5.688l-3.024,0.145c0.216-1.44,0.433-2.521,0.504-3.24
		c0.146-1.152,0.217-2.88,0.288-5.186c0.072-2.304,0.146-4.031,0.146-5.257v-6.048c0-2.953-0.146-4.321-0.576-5.545
		c-0.721-2.16-2.88-3.528-5.545-3.528c-2.088,0-4.104,0.864-5.616,2.376c-1.8,1.8-2.232,3.24-2.232,7.705v5.112
		c0,6.479,0.434,10.513,1.44,13.608l-3.168-0.144h-5.688l-3.023,0.144c0.288-1.439,0.432-2.521,0.504-3.239
		c0.216-1.729,0.432-6.625,0.432-10.441l0.146-8.063c0-3.528-0.288-6.049-0.648-7.488c-0.358-1.512-1.368-2.232-3.096-2.232h-0.576
		l1.44-3.239l2.88-0.145l5.761-0.144l3.384-0.217l-0.144,6.049l2.952-2.376c3.672-2.953,6.407-4.177,10.151-4.177
		c3.89,0,6.913,1.368,8.857,3.889c1.584,2.16,2.016,4.104,1.943,9.217l-0.071,9c-0.072,6.553,0.432,10.513,1.438,13.609
		L252.143,51.701z"/>
	<path fill="#FFFFFF" d="M285.189,19.946l-0.936,2.665c-2.81-0.216-3.816-0.288-6.049-0.288h-2.88l-0.217,6.625v7.632v0.504
		c0,3.673,0.071,4.753,0.433,6.193c0.576,2.376,2.376,3.744,4.823,3.744c1.585,0,2.81-0.36,4.608-1.296l0.864,0.504l-0.72,2.304
		l-0.722,3.024c-4.176,1.151-6.265,1.512-8.567,1.512c-7.2,0-10.298-3.601-10.298-12.024v-3.312l0.072-6.984
		c0.071-3.815-0.217-6.337-0.576-7.776c-0.359-1.513-1.367-2.232-3.097-2.232h-1.224l1.438-3.601l3.745-0.072
		c0-2.304-0.072-2.953-0.288-6.193l2.736-0.936l4.464-2.017l2.448-1.367l0.792,0.792c-0.504,3.384-0.576,4.319-0.721,9.793
		l4.969,0.071h0.433c2.376,0,2.952-0.071,5.04-0.504l0.504,0.72L285.189,19.946z"/>
</g>
</svg>
